<mxfile host="Electron" agent="Mozilla/5.0 (Windows NT 10.0; Win64; x64) AppleWebKit/537.36 (KHTML, like Gecko) draw.io/25.0.2 Chrome/128.0.6613.186 Electron/32.2.5 Safari/537.36" version="25.0.2">
  <diagram name="Page-1" id="QbVM-qhq_BF2LXNoguQ5">
    <mxGraphModel dx="1195" dy="697" grid="1" gridSize="10" guides="1" tooltips="1" connect="1" arrows="1" fold="1" page="1" pageScale="1" pageWidth="850" pageHeight="1100" math="0" shadow="0">
      <root>
        <mxCell id="0" />
        <mxCell id="1" parent="0" />
        <mxCell id="mEob46jThGOG9od_VYb--470" value="Orchestrated Learner Node" style="text;align=center;verticalAlign=middle;resizable=0;points=[];autosize=1;strokeColor=none;fillColor=none;fontStyle=0;fontSize=20;fontFamily=CMU Sans Serif;" vertex="1" parent="1">
          <mxGeometry x="383.50000000000006" y="71" width="250" height="40" as="geometry" />
        </mxCell>
        <mxCell id="mEob46jThGOG9od_VYb--464" value="" style="rounded=0;whiteSpace=wrap;html=1;fontStyle=0;fontFamily=CMU Sans Serif;fillColor=#cccccc;" vertex="1" parent="1">
          <mxGeometry x="133" y="111" width="697" height="455.36" as="geometry" />
        </mxCell>
        <mxCell id="mEob46jThGOG9od_VYb--539" value="" style="rounded=0;whiteSpace=wrap;html=1;fontStyle=0;fontFamily=CMU Sans Serif;fillColor=#CCCCCC;shape=ellipse;perimeter=ellipsePerimeter;aspect=fixed;" vertex="1" parent="1">
          <mxGeometry x="675" y="600" width="140" height="140" as="geometry" />
        </mxCell>
        <mxCell id="mEob46jThGOG9od_VYb--540" value="Edge Device" style="text;align=center;verticalAlign=middle;resizable=0;points=[];autosize=1;strokeColor=none;fillColor=none;fontStyle=0;fontSize=20;fontFamily=CMU Sans Serif;" vertex="1" parent="1">
          <mxGeometry x="680.18" y="736.36" width="130" height="40" as="geometry" />
        </mxCell>
        <mxCell id="mEob46jThGOG9od_VYb--538" value="&lt;font color=&quot;#000000&quot; style=&quot;font-size: 18px;&quot;&gt;Arrow Flight&lt;/font&gt;&lt;div&gt;&lt;font color=&quot;#000000&quot; style=&quot;font-size: 18px;&quot;&gt;Client&lt;/font&gt;&lt;/div&gt;" style="rounded=1;whiteSpace=wrap;html=1;fillColor=#99FFCC;strokeColor=#000000;fontStyle=0;fontFamily=CMU Sans Serif;strokeWidth=2;" vertex="1" parent="1">
          <mxGeometry x="690" y="635" width="110" height="70" as="geometry" />
        </mxCell>
        <mxCell id="mEob46jThGOG9od_VYb--541" value="&lt;font color=&quot;#000000&quot; style=&quot;font-size: 18px;&quot;&gt;ML Data Server&lt;/font&gt;" style="rounded=0;whiteSpace=wrap;html=1;fillColor=#FFFFFF;strokeColor=#999999;fontStyle=0;fontFamily=CMU Sans Serif;strokeWidth=2;verticalAlign=top;" vertex="1" parent="1">
          <mxGeometry x="670" y="410" width="150" height="124" as="geometry" />
        </mxCell>
        <mxCell id="mEob46jThGOG9od_VYb--546" style="edgeStyle=orthogonalEdgeStyle;rounded=0;orthogonalLoop=1;jettySize=auto;html=1;entryX=0.5;entryY=0;entryDx=0;entryDy=0;fontColor=#000000;strokeColor=#000000;startArrow=classic;startFill=1;strokeWidth=2;fontFamily=CMU Sans Serif;" edge="1" parent="1" source="mEob46jThGOG9od_VYb--542" target="mEob46jThGOG9od_VYb--541">
          <mxGeometry relative="1" as="geometry" />
        </mxCell>
        <mxCell id="mEob46jThGOG9od_VYb--542" value="" style="rounded=0;whiteSpace=wrap;html=1;fillColor=#FFFFFF;strokeColor=#999999;fontStyle=0;fontFamily=CMU Sans Serif;strokeWidth=2;shape=cylinder3;boundedLbl=1;backgroundOutline=1;size=15;" vertex="1" parent="1">
          <mxGeometry x="690" y="286" width="110" height="80" as="geometry" />
        </mxCell>
        <mxCell id="mEob46jThGOG9od_VYb--545" value="&lt;font color=&quot;#000000&quot; style=&quot;font-size: 18px;&quot;&gt;Arrow Flight&lt;/font&gt;&lt;div&gt;&lt;font color=&quot;#000000&quot; style=&quot;font-size: 18px;&quot;&gt;Server&lt;/font&gt;&lt;/div&gt;" style="rounded=0;whiteSpace=wrap;html=1;fillColor=#99FFCC;strokeColor=#000000;fontStyle=0;fontFamily=CMU Sans Serif;strokeWidth=2;" vertex="1" parent="1">
          <mxGeometry x="690" y="445" width="110" height="70" as="geometry" />
        </mxCell>
        <mxCell id="mEob46jThGOG9od_VYb--547" style="edgeStyle=orthogonalEdgeStyle;rounded=0;orthogonalLoop=1;jettySize=auto;html=1;entryX=0.5;entryY=1;entryDx=0;entryDy=0;strokeWidth=3;strokeColor=#009900;fontFamily=CMU Sans Serif;exitX=0.5;exitY=0;exitDx=0;exitDy=0;" edge="1" parent="1" source="mEob46jThGOG9od_VYb--538" target="mEob46jThGOG9od_VYb--545">
          <mxGeometry relative="1" as="geometry" />
        </mxCell>
        <mxCell id="mEob46jThGOG9od_VYb--548" value="&lt;font color=&quot;#000000&quot; style=&quot;font-size: 18px;&quot;&gt;Execution Runtime&lt;/font&gt;" style="rounded=0;whiteSpace=wrap;html=1;fillColor=#FFFFFF;strokeColor=#999999;fontStyle=0;fontFamily=CMU Sans Serif;strokeWidth=2;verticalAlign=bottom;" vertex="1" parent="1">
          <mxGeometry x="143.18" y="120" width="430" height="440" as="geometry" />
        </mxCell>
        <mxCell id="mEob46jThGOG9od_VYb--549" value="&lt;font color=&quot;#000000&quot; style=&quot;font-size: 18px;&quot;&gt;Learner Container&lt;/font&gt;" style="rounded=0;whiteSpace=wrap;html=1;fillColor=#CCE5FF;strokeColor=#66B2FF;fontStyle=0;fontFamily=CMU Sans Serif;strokeWidth=2;verticalAlign=top;" vertex="1" parent="1">
          <mxGeometry x="153.18" y="131.36" width="410" height="400" as="geometry" />
        </mxCell>
        <mxCell id="mEob46jThGOG9od_VYb--550" value="&lt;font color=&quot;#000000&quot; style=&quot;font-size: 18px;&quot;&gt;&lt;b&gt;User ML Code&lt;/b&gt;&lt;/font&gt;" style="rounded=0;whiteSpace=wrap;html=1;fillColor=#FFCCCC;strokeColor=#FF6666;fontStyle=0;fontFamily=CMU Sans Serif;strokeWidth=2;verticalAlign=top;" vertex="1" parent="1">
          <mxGeometry x="163.18" y="160" width="390" height="190" as="geometry" />
        </mxCell>
        <mxCell id="mEob46jThGOG9od_VYb--557" style="edgeStyle=orthogonalEdgeStyle;rounded=0;orthogonalLoop=1;jettySize=auto;html=1;entryX=1;entryY=0.5;entryDx=0;entryDy=0;strokeWidth=2;strokeColor=#000000;endArrow=none;endFill=0;fontFamily=CMU Sans Serif;" edge="1" parent="1" source="mEob46jThGOG9od_VYb--552" target="mEob46jThGOG9od_VYb--553">
          <mxGeometry relative="1" as="geometry" />
        </mxCell>
        <mxCell id="mEob46jThGOG9od_VYb--623" style="edgeStyle=orthogonalEdgeStyle;rounded=0;orthogonalLoop=1;jettySize=auto;html=1;entryX=0;entryY=0.75;entryDx=0;entryDy=0;exitX=1;exitY=0.75;exitDx=0;exitDy=0;strokeWidth=2;strokeColor=#000000;" edge="1" parent="1" source="mEob46jThGOG9od_VYb--552" target="mEob46jThGOG9od_VYb--545">
          <mxGeometry relative="1" as="geometry" />
        </mxCell>
        <mxCell id="mEob46jThGOG9od_VYb--624" value="A5)&lt;br&gt;Fetch all files&lt;br&gt;with matching&lt;br&gt;&lt;b&gt;&lt;font color=&quot;#6600cc&quot;&gt;DataTags&lt;/font&gt;&lt;/b&gt;" style="edgeLabel;html=1;align=center;verticalAlign=middle;resizable=0;points=[];fontColor=#000000;labelBackgroundColor=none;" vertex="1" connectable="0" parent="mEob46jThGOG9od_VYb--623">
          <mxGeometry x="0.1893" y="-1" relative="1" as="geometry">
            <mxPoint x="-9" y="32" as="offset" />
          </mxGeometry>
        </mxCell>
        <mxCell id="mEob46jThGOG9od_VYb--552" value="&lt;font color=&quot;#000000&quot; style=&quot;font-size: 18px;&quot;&gt;Arrow Flight&lt;/font&gt;&lt;div&gt;&lt;font color=&quot;#000000&quot; style=&quot;font-size: 18px;&quot;&gt;Client&lt;/font&gt;&lt;/div&gt;" style="rounded=1;whiteSpace=wrap;html=1;fillColor=#99FFCC;strokeColor=#000000;fontStyle=0;fontFamily=CMU Sans Serif;strokeWidth=2;" vertex="1" parent="1">
          <mxGeometry x="428.18" y="445" width="110" height="70" as="geometry" />
        </mxCell>
        <mxCell id="mEob46jThGOG9od_VYb--629" style="edgeStyle=orthogonalEdgeStyle;rounded=0;orthogonalLoop=1;jettySize=auto;html=1;strokeWidth=2;strokeColor=#000000;" edge="1" parent="1" source="mEob46jThGOG9od_VYb--553">
          <mxGeometry relative="1" as="geometry">
            <mxPoint x="280.33333333333326" y="503.9047619047618" as="targetPoint" />
          </mxGeometry>
        </mxCell>
        <mxCell id="mEob46jThGOG9od_VYb--630" value="A4)&lt;br&gt;loadDataFrom&lt;br&gt;MLDataServer()" style="edgeLabel;html=1;align=center;verticalAlign=middle;resizable=0;points=[];labelBackgroundColor=none;fontColor=#000000;" vertex="1" connectable="0" parent="mEob46jThGOG9od_VYb--629">
          <mxGeometry x="0.0245" y="2" relative="1" as="geometry">
            <mxPoint x="-45" y="9" as="offset" />
          </mxGeometry>
        </mxCell>
        <mxCell id="mEob46jThGOG9od_VYb--634" style="edgeStyle=orthogonalEdgeStyle;rounded=0;orthogonalLoop=1;jettySize=auto;html=1;strokeWidth=2;strokeColor=#000000;startArrow=classic;startFill=1;endArrow=none;endFill=0;" edge="1" parent="1" source="mEob46jThGOG9od_VYb--553">
          <mxGeometry relative="1" as="geometry">
            <mxPoint x="376" y="444" as="targetPoint" />
            <Array as="points">
              <mxPoint x="338" y="395" />
              <mxPoint x="480" y="395" />
              <mxPoint x="480" y="426" />
              <mxPoint x="376" y="426" />
            </Array>
          </mxGeometry>
        </mxCell>
        <mxCell id="mEob46jThGOG9od_VYb--658" value="A7) convertAndMerge()" style="edgeLabel;html=1;align=center;verticalAlign=middle;resizable=0;points=[];labelBackgroundColor=none;fontColor=#000000;" vertex="1" connectable="0" parent="mEob46jThGOG9od_VYb--634">
          <mxGeometry x="0.9652" y="-1" relative="1" as="geometry">
            <mxPoint x="19" y="-72" as="offset" />
          </mxGeometry>
        </mxCell>
        <mxCell id="mEob46jThGOG9od_VYb--553" value="&lt;font color=&quot;#000000&quot;&gt;&lt;span style=&quot;font-size: 18px;&quot;&gt;Data&lt;br&gt;Loading&lt;/span&gt;&lt;/font&gt;" style="rounded=1;whiteSpace=wrap;html=1;fillColor=#3399FF;strokeColor=#000000;fontStyle=0;fontFamily=CMU Sans Serif;strokeWidth=2;" vertex="1" parent="1">
          <mxGeometry x="283.18" y="445" width="110" height="70" as="geometry" />
        </mxCell>
        <mxCell id="mEob46jThGOG9od_VYb--558" style="edgeStyle=orthogonalEdgeStyle;rounded=0;orthogonalLoop=1;jettySize=auto;html=1;startArrow=classic;startFill=1;strokeColor=#000000;strokeWidth=2;fontFamily=CMU Sans Serif;entryX=0.186;entryY=-0.003;entryDx=0;entryDy=0;entryPerimeter=0;exitX=0.124;exitY=1.023;exitDx=0;exitDy=0;exitPerimeter=0;endArrow=none;endFill=0;" edge="1" parent="1" source="mEob46jThGOG9od_VYb--554" target="mEob46jThGOG9od_VYb--553">
          <mxGeometry relative="1" as="geometry">
            <Array as="points">
              <mxPoint x="227" y="410" />
              <mxPoint x="304" y="410" />
            </Array>
          </mxGeometry>
        </mxCell>
        <mxCell id="mEob46jThGOG9od_VYb--657" value="&lt;font color=&quot;#000000&quot;&gt;A8)&lt;/font&gt;" style="edgeLabel;html=1;align=center;verticalAlign=middle;resizable=0;points=[];labelBackgroundColor=none;" vertex="1" connectable="0" parent="mEob46jThGOG9od_VYb--558">
          <mxGeometry x="-0.1782" relative="1" as="geometry">
            <mxPoint x="38" y="-12" as="offset" />
          </mxGeometry>
        </mxCell>
        <mxCell id="mEob46jThGOG9od_VYb--559" style="edgeStyle=orthogonalEdgeStyle;rounded=0;orthogonalLoop=1;jettySize=auto;html=1;exitX=1;exitY=0.75;exitDx=0;exitDy=0;entryX=0;entryY=0.75;entryDx=0;entryDy=0;startArrow=none;startFill=0;strokeColor=#000000;strokeWidth=2;fontFamily=CMU Sans Serif;" edge="1" parent="1" source="mEob46jThGOG9od_VYb--554" target="mEob46jThGOG9od_VYb--555">
          <mxGeometry relative="1" as="geometry" />
        </mxCell>
        <mxCell id="mEob46jThGOG9od_VYb--670" value="B3)" style="edgeLabel;html=1;align=center;verticalAlign=middle;resizable=0;points=[];labelBackgroundColor=none;fontColor=#000000;" vertex="1" connectable="0" parent="mEob46jThGOG9od_VYb--559">
          <mxGeometry x="-0.8353" y="1" relative="1" as="geometry">
            <mxPoint x="27" y="24" as="offset" />
          </mxGeometry>
        </mxCell>
        <mxCell id="mEob46jThGOG9od_VYb--659" style="edgeStyle=orthogonalEdgeStyle;rounded=0;orthogonalLoop=1;jettySize=auto;html=1;entryX=0;entryY=0.25;entryDx=0;entryDy=0;exitX=-0.009;exitY=0.702;exitDx=0;exitDy=0;exitPerimeter=0;strokeWidth=2;strokeColor=#000000;" edge="1" parent="1" source="mEob46jThGOG9od_VYb--554" target="mEob46jThGOG9od_VYb--553">
          <mxGeometry relative="1" as="geometry" />
        </mxCell>
        <mxCell id="mEob46jThGOG9od_VYb--660" value="A3)&lt;br&gt;loadDataset()" style="edgeLabel;html=1;align=center;verticalAlign=middle;resizable=0;points=[];labelBackgroundColor=none;fontColor=#000000;" vertex="1" connectable="0" parent="mEob46jThGOG9od_VYb--659">
          <mxGeometry x="0.1008" y="-1" relative="1" as="geometry">
            <mxPoint x="38" y="24" as="offset" />
          </mxGeometry>
        </mxCell>
        <mxCell id="mEob46jThGOG9od_VYb--554" value="&lt;font color=&quot;#000000&quot;&gt;&lt;span style=&quot;font-size: 18px;&quot;&gt;Data&lt;br&gt;Manager&lt;/span&gt;&lt;/font&gt;" style="rounded=1;whiteSpace=wrap;html=1;fillColor=#FF3333;strokeColor=#000000;fontStyle=0;fontFamily=CMU Sans Serif;strokeWidth=2;" vertex="1" parent="1">
          <mxGeometry x="213.18" y="230" width="110" height="70" as="geometry" />
        </mxCell>
        <mxCell id="mEob46jThGOG9od_VYb--617" style="edgeStyle=orthogonalEdgeStyle;rounded=0;orthogonalLoop=1;jettySize=auto;html=1;entryX=1;entryY=0.25;entryDx=0;entryDy=0;exitX=0;exitY=0.25;exitDx=0;exitDy=0;strokeWidth=2;strokeColor=#000000;" edge="1" parent="1" source="mEob46jThGOG9od_VYb--555" target="mEob46jThGOG9od_VYb--554">
          <mxGeometry relative="1" as="geometry" />
        </mxCell>
        <mxCell id="mEob46jThGOG9od_VYb--618" value="B2)&lt;br&gt;getData()" style="edgeLabel;html=1;align=center;verticalAlign=middle;resizable=0;points=[];labelBackgroundColor=none;fontColor=#000000;" vertex="1" connectable="0" parent="mEob46jThGOG9od_VYb--617">
          <mxGeometry x="-0.0667" y="-2" relative="1" as="geometry">
            <mxPoint y="-15" as="offset" />
          </mxGeometry>
        </mxCell>
        <mxCell id="mEob46jThGOG9od_VYb--555" value="&lt;font color=&quot;#000000&quot;&gt;&lt;span style=&quot;font-size: 18px;&quot;&gt;Model&lt;br&gt;Manager&lt;/span&gt;&lt;/font&gt;" style="rounded=1;whiteSpace=wrap;html=1;fillColor=#FF3333;strokeColor=#000000;fontStyle=0;fontFamily=CMU Sans Serif;strokeWidth=2;align=left;" vertex="1" parent="1">
          <mxGeometry x="393.18" y="230" width="138.18" height="70" as="geometry" />
        </mxCell>
        <mxCell id="mEob46jThGOG9od_VYb--556" style="edgeStyle=orthogonalEdgeStyle;rounded=0;orthogonalLoop=1;jettySize=auto;html=1;entryX=1.013;entryY=0.316;entryDx=0;entryDy=0;strokeWidth=2;strokeColor=#000000;fontFamily=CMU Sans Serif;exitX=0.001;exitY=0.308;exitDx=0;exitDy=0;exitPerimeter=0;entryPerimeter=0;" edge="1" parent="1" source="mEob46jThGOG9od_VYb--545" target="mEob46jThGOG9od_VYb--552">
          <mxGeometry relative="1" as="geometry" />
        </mxCell>
        <mxCell id="mEob46jThGOG9od_VYb--625" value="A6)&lt;br&gt;Stream Matching&lt;br&gt;Files" style="edgeLabel;html=1;align=center;verticalAlign=middle;resizable=0;points=[];labelBackgroundColor=none;fontColor=#000000;" vertex="1" connectable="0" parent="mEob46jThGOG9od_VYb--556">
          <mxGeometry x="-0.0504" y="-1" relative="1" as="geometry">
            <mxPoint y="-36" as="offset" />
          </mxGeometry>
        </mxCell>
        <mxCell id="mEob46jThGOG9od_VYb--562" value="&lt;b&gt;&lt;font face=&quot;CMU Sans Serif&quot; style=&quot;font-size: 20px;&quot; color=&quot;#000000&quot;&gt;A&lt;/font&gt;&lt;/b&gt;" style="ellipse;whiteSpace=wrap;html=1;aspect=fixed;fillColor=#FFFF33;strokeColor=#000000;strokeWidth=2;" vertex="1" parent="1">
          <mxGeometry x="731.9999999999999" y="710" width="26.36" height="26.36" as="geometry" />
        </mxCell>
        <mxCell id="mEob46jThGOG9od_VYb--563" value="ML Data Volume" style="text;align=center;verticalAlign=middle;resizable=0;points=[];autosize=1;strokeColor=none;fillColor=none;fontStyle=0;fontSize=20;fontFamily=CMU Sans Serif;fontColor=#000000;" vertex="1" parent="1">
          <mxGeometry x="660" y="246" width="170" height="40" as="geometry" />
        </mxCell>
        <mxCell id="mEob46jThGOG9od_VYb--564" value="&lt;b&gt;&lt;font face=&quot;CMU Sans Serif&quot; style=&quot;font-size: 18px;&quot; color=&quot;#000000&quot;&gt;A&lt;/font&gt;&lt;/b&gt;" style="whiteSpace=wrap;html=1;aspect=fixed;fillColor=#FFFF33;strokeColor=#000000;strokeWidth=2;shape=rhombus;perimeter=rhombusPerimeter;" vertex="1" parent="1">
          <mxGeometry x="696.8199999999999" y="326" width="26.36" height="26.36" as="geometry" />
        </mxCell>
        <mxCell id="mEob46jThGOG9od_VYb--565" value="&lt;b&gt;&lt;font face=&quot;CMU Sans Serif&quot; style=&quot;font-size: 18px;&quot; color=&quot;#000000&quot;&gt;B&lt;/font&gt;&lt;/b&gt;" style="whiteSpace=wrap;html=1;aspect=fixed;fillColor=#FF00FF;strokeColor=#000000;strokeWidth=2;shape=rhombus;perimeter=rhombusPerimeter;" vertex="1" parent="1">
          <mxGeometry x="731.8199999999999" y="326" width="26.36" height="26.36" as="geometry" />
        </mxCell>
        <mxCell id="mEob46jThGOG9od_VYb--566" value="&lt;b&gt;&lt;font face=&quot;CMU Sans Serif&quot; style=&quot;font-size: 18px;&quot; color=&quot;#000000&quot;&gt;C&lt;/font&gt;&lt;/b&gt;" style="whiteSpace=wrap;html=1;aspect=fixed;fillColor=#FFFFFF;strokeColor=#000000;strokeWidth=2;shape=rhombus;perimeter=rhombusPerimeter;verticalAlign=middle;" vertex="1" parent="1">
          <mxGeometry x="766.8199999999999" y="326" width="26.36" height="26.36" as="geometry" />
        </mxCell>
        <mxCell id="mEob46jThGOG9od_VYb--569" value="&lt;b&gt;&lt;font face=&quot;CMU Sans Serif&quot; style=&quot;font-size: 20px;&quot; color=&quot;#000000&quot;&gt;A&lt;/font&gt;&lt;/b&gt;" style="whiteSpace=wrap;html=1;aspect=fixed;fillColor=#FFFF33;strokeColor=#000000;strokeWidth=2;shape=rhombus;perimeter=rhombusPerimeter;" vertex="1" parent="1">
          <mxGeometry x="731.9999999999999" y="540" width="26.36" height="26.36" as="geometry" />
        </mxCell>
        <mxCell id="mEob46jThGOG9od_VYb--570" value="Stream File" style="text;align=center;verticalAlign=middle;resizable=0;points=[];autosize=1;strokeColor=none;fillColor=none;fontStyle=0;fontSize=20;fontFamily=CMU Sans Serif;fontColor=#FFFFFF;" vertex="1" parent="1">
          <mxGeometry x="670" y="563" width="120" height="40" as="geometry" />
        </mxCell>
        <mxCell id="mEob46jThGOG9od_VYb--571" value="" style="rounded=0;whiteSpace=wrap;html=1;fontStyle=0;fontFamily=CMU Sans Serif;fillColor=#cccccc;" vertex="1" parent="1">
          <mxGeometry x="133" y="600" width="387" height="170" as="geometry" />
        </mxCell>
        <mxCell id="mEob46jThGOG9od_VYb--572" value="&lt;span style=&quot;font-size: 18px;&quot;&gt;&lt;b style=&quot;&quot;&gt;&lt;font color=&quot;#ffffff&quot;&gt;L&lt;br&gt;E&lt;br&gt;G&lt;br&gt;E&lt;br&gt;N&lt;br&gt;D&lt;/font&gt;&lt;/b&gt;&lt;/span&gt;" style="rounded=0;whiteSpace=wrap;html=1;fillColor=#000000;strokeColor=#000000;fontStyle=0;fontFamily=CMU Sans Serif;strokeWidth=2;" vertex="1" parent="1">
          <mxGeometry x="133" y="600" width="20" height="170" as="geometry" />
        </mxCell>
        <mxCell id="mEob46jThGOG9od_VYb--573" value="&lt;b&gt;&lt;font face=&quot;CMU Sans Serif&quot; style=&quot;font-size: 20px;&quot; color=&quot;#000000&quot;&gt;A&lt;/font&gt;&lt;/b&gt;" style="ellipse;whiteSpace=wrap;html=1;aspect=fixed;fillColor=#FFFF33;strokeColor=#000000;strokeWidth=2;" vertex="1" parent="1">
          <mxGeometry x="162.9999999999999" y="612.09" width="26.36" height="26.36" as="geometry" />
        </mxCell>
        <mxCell id="mEob46jThGOG9od_VYb--574" value="&lt;b&gt;&lt;font face=&quot;CMU Sans Serif&quot; style=&quot;font-size: 18px;&quot; color=&quot;#000000&quot;&gt;B&lt;/font&gt;&lt;/b&gt;" style="whiteSpace=wrap;html=1;aspect=fixed;fillColor=#FF00FF;strokeColor=#000000;strokeWidth=2;shape=ellipse;perimeter=ellipsePerimeter;" vertex="1" parent="1">
          <mxGeometry x="162.99999999999994" y="652.3699999999999" width="26.36" height="26.36" as="geometry" />
        </mxCell>
        <mxCell id="mEob46jThGOG9od_VYb--575" value="&lt;b&gt;&lt;font face=&quot;CMU Sans Serif&quot; style=&quot;font-size: 18px;&quot; color=&quot;#000000&quot;&gt;C&lt;/font&gt;&lt;/b&gt;" style="whiteSpace=wrap;html=1;aspect=fixed;fillColor=#FFFFFF;strokeColor=#000000;strokeWidth=2;shape=ellipse;verticalAlign=middle;perimeter=ellipsePerimeter;" vertex="1" parent="1">
          <mxGeometry x="162.99999999999994" y="693.7299999999999" width="26.36" height="26.36" as="geometry" />
        </mxCell>
        <mxCell id="mEob46jThGOG9od_VYb--576" value="&lt;b&gt;&lt;font face=&quot;CMU Sans Serif&quot; style=&quot;font-size: 18px;&quot; color=&quot;#000000&quot;&gt;D&lt;/font&gt;&lt;/b&gt;" style="whiteSpace=wrap;html=1;aspect=fixed;fillColor=#FFFFFF;strokeColor=#000000;strokeWidth=2;shape=rhombus;perimeter=rhombusPerimeter;verticalAlign=middle;" vertex="1" parent="1">
          <mxGeometry x="352.9999999999999" y="612.1" width="26.36" height="26.36" as="geometry" />
        </mxCell>
        <mxCell id="mEob46jThGOG9od_VYb--582" value="&lt;b&gt;&lt;font face=&quot;CMU Sans Serif&quot; style=&quot;font-size: 18px;&quot; color=&quot;#000000&quot;&gt;D&lt;/font&gt;&lt;/b&gt;" style="whiteSpace=wrap;html=1;aspect=fixed;fillColor=#FFFFFF;strokeColor=#000000;strokeWidth=2;shape=mxgraph.basic.pentagon;verticalAlign=middle;" vertex="1" parent="1">
          <mxGeometry x="353" y="654.69" width="26.36" height="26.36" as="geometry" />
        </mxCell>
        <mxCell id="mEob46jThGOG9od_VYb--591" value="&lt;font style=&quot;font-size: 16px;&quot;&gt;&lt;b style=&quot;&quot;&gt;&lt;font color=&quot;#6600cc&quot;&gt;DataTag1&lt;/font&gt;&lt;font color=&quot;#000000&quot;&gt;.hash1&lt;/font&gt;&lt;/b&gt;&lt;/font&gt;" style="rounded=1;whiteSpace=wrap;html=1;fillColor=#FFFFFF;strokeColor=none;fontStyle=0;fontFamily=CMU Sans Serif;strokeWidth=2;verticalAlign=middle;" vertex="1" parent="1">
          <mxGeometry x="198" y="614.32" width="135" height="21.91" as="geometry" />
        </mxCell>
        <mxCell id="mEob46jThGOG9od_VYb--594" value="&lt;font style=&quot;font-size: 16px;&quot;&gt;&lt;b style=&quot;&quot;&gt;&lt;font color=&quot;#6600cc&quot;&gt;DataTag1&lt;/font&gt;&lt;/b&gt;&lt;font color=&quot;#000000&quot;&gt;.hash2&lt;/font&gt;&lt;/font&gt;" style="rounded=1;whiteSpace=wrap;html=1;fillColor=#FFFFFF;strokeColor=none;fontStyle=0;fontFamily=CMU Sans Serif;strokeWidth=2;verticalAlign=middle;" vertex="1" parent="1">
          <mxGeometry x="198" y="654.59" width="135" height="21.91" as="geometry" />
        </mxCell>
        <mxCell id="mEob46jThGOG9od_VYb--595" value="&lt;font color=&quot;#000000&quot; style=&quot;font-size: 16px;&quot;&gt;DataTag2.hash3&lt;/font&gt;" style="rounded=1;whiteSpace=wrap;html=1;fillColor=#FFFFFF;strokeColor=none;fontStyle=0;fontFamily=CMU Sans Serif;strokeWidth=2;verticalAlign=middle;" vertex="1" parent="1">
          <mxGeometry x="198" y="695.9599999999999" width="135" height="21.91" as="geometry" />
        </mxCell>
        <mxCell id="mEob46jThGOG9od_VYb--598" value="" style="group" vertex="1" connectable="0" parent="1">
          <mxGeometry x="346.17999999999995" y="690" width="40" height="40" as="geometry" />
        </mxCell>
        <mxCell id="mEob46jThGOG9od_VYb--589" value="" style="verticalLabelPosition=bottom;verticalAlign=top;html=1;shape=mxgraph.basic.6_point_star;fillColor=#FFFFFF;strokeColor=#000000;strokeWidth=2;" vertex="1" parent="mEob46jThGOG9od_VYb--598">
          <mxGeometry y="3.409999999999968" width="40" height="33.18" as="geometry" />
        </mxCell>
        <mxCell id="mEob46jThGOG9od_VYb--590" value="&lt;b&gt;&lt;font style=&quot;font-size: 18px;&quot; color=&quot;#000000&quot; face=&quot;CMU Sans Serif&quot;&gt;D&lt;/font&gt;&lt;/b&gt;" style="text;html=1;align=center;verticalAlign=middle;resizable=0;points=[];autosize=1;strokeColor=none;fillColor=none;" vertex="1" parent="mEob46jThGOG9od_VYb--598">
          <mxGeometry width="40" height="40" as="geometry" />
        </mxCell>
        <mxCell id="mEob46jThGOG9od_VYb--602" value="&lt;font color=&quot;#000000&quot;&gt;&lt;span style=&quot;font-size: 16px;&quot;&gt;Final Training Data&lt;/span&gt;&lt;/font&gt;" style="rounded=1;whiteSpace=wrap;html=1;fillColor=#FFFFFF;strokeColor=none;fontStyle=0;fontFamily=CMU Sans Serif;strokeWidth=2;verticalAlign=middle;" vertex="1" parent="1">
          <mxGeometry x="266.68" y="739.2299999999999" width="143" height="21.91" as="geometry" />
        </mxCell>
        <mxCell id="mEob46jThGOG9od_VYb--603" value="&lt;font color=&quot;#000000&quot; style=&quot;font-size: 16px;&quot;&gt;Parquet Format&lt;/font&gt;" style="rounded=1;whiteSpace=wrap;html=1;fillColor=#FFFFFF;strokeColor=none;fontStyle=0;fontFamily=CMU Sans Serif;strokeWidth=2;verticalAlign=middle;" vertex="1" parent="1">
          <mxGeometry x="393" y="614.33" width="117" height="21.91" as="geometry" />
        </mxCell>
        <mxCell id="mEob46jThGOG9od_VYb--604" value="&lt;font color=&quot;#000000&quot; style=&quot;font-size: 16px;&quot;&gt;Arrow Format&lt;/font&gt;" style="rounded=1;whiteSpace=wrap;html=1;fillColor=#FFFFFF;strokeColor=none;fontStyle=0;fontFamily=CMU Sans Serif;strokeWidth=2;verticalAlign=middle;" vertex="1" parent="1">
          <mxGeometry x="393" y="656.91" width="117" height="21.91" as="geometry" />
        </mxCell>
        <mxCell id="mEob46jThGOG9od_VYb--605" value="&lt;font color=&quot;#000000&quot; style=&quot;font-size: 16px;&quot;&gt;User Format&lt;/font&gt;" style="rounded=1;whiteSpace=wrap;html=1;fillColor=#FFFFFF;strokeColor=none;fontStyle=0;fontFamily=CMU Sans Serif;strokeWidth=2;verticalAlign=middle;" vertex="1" parent="1">
          <mxGeometry x="393" y="700.41" width="117" height="21.91" as="geometry" />
        </mxCell>
        <mxCell id="mEob46jThGOG9od_VYb--607" value="M" style="text;align=center;verticalAlign=middle;resizable=0;points=[];autosize=1;strokeColor=none;fillColor=none;fontStyle=1;fontSize=40;fontFamily=CMU Sans Serif;" vertex="1" parent="1">
          <mxGeometry x="460" y="230" width="60" height="60" as="geometry" />
        </mxCell>
        <mxCell id="mEob46jThGOG9od_VYb--608" style="edgeStyle=orthogonalEdgeStyle;rounded=0;orthogonalLoop=1;jettySize=auto;html=1;entryX=0.292;entryY=0.001;entryDx=0;entryDy=0;entryPerimeter=0;exitX=0.521;exitY=-0.014;exitDx=0;exitDy=0;exitPerimeter=0;strokeWidth=2;strokeColor=#000000;" edge="1" parent="1" source="mEob46jThGOG9od_VYb--607" target="mEob46jThGOG9od_VYb--555">
          <mxGeometry relative="1" as="geometry" />
        </mxCell>
        <mxCell id="mEob46jThGOG9od_VYb--614" value="B1)&lt;br&gt;setModelData()" style="edgeLabel;html=1;align=center;verticalAlign=middle;resizable=0;points=[];labelBackgroundColor=none;fontColor=#000000;" vertex="1" connectable="0" parent="mEob46jThGOG9od_VYb--608">
          <mxGeometry x="-0.0191" relative="1" as="geometry">
            <mxPoint y="-20" as="offset" />
          </mxGeometry>
        </mxCell>
        <mxCell id="mEob46jThGOG9od_VYb--612" style="edgeStyle=orthogonalEdgeStyle;rounded=0;orthogonalLoop=1;jettySize=auto;html=1;strokeColor=#000000;startArrow=classic;startFill=1;endArrow=none;endFill=0;strokeWidth=2;exitX=0.5;exitY=0;exitDx=0;exitDy=0;entryX=0.85;entryY=0.005;entryDx=0;entryDy=0;entryPerimeter=0;" edge="1" parent="1" source="mEob46jThGOG9od_VYb--554" target="mEob46jThGOG9od_VYb--554">
          <mxGeometry relative="1" as="geometry">
            <mxPoint x="373" y="230" as="targetPoint" />
            <Array as="points">
              <mxPoint x="268" y="210" />
              <mxPoint x="307" y="210" />
            </Array>
          </mxGeometry>
        </mxCell>
        <mxCell id="mEob46jThGOG9od_VYb--619" value="A1) init()" style="edgeLabel;html=1;align=center;verticalAlign=middle;resizable=0;points=[];labelBackgroundColor=none;fontColor=#000000;" vertex="1" connectable="0" parent="mEob46jThGOG9od_VYb--612">
          <mxGeometry x="0.0868" y="-1" relative="1" as="geometry">
            <mxPoint x="-4" y="-11" as="offset" />
          </mxGeometry>
        </mxCell>
        <mxCell id="mEob46jThGOG9od_VYb--621" style="edgeStyle=orthogonalEdgeStyle;rounded=0;orthogonalLoop=1;jettySize=auto;html=1;exitX=0.25;exitY=0;exitDx=0;exitDy=0;entryX=0;entryY=0.25;entryDx=0;entryDy=0;strokeColor=#000000;strokeWidth=2;" edge="1" parent="1" source="mEob46jThGOG9od_VYb--554" target="mEob46jThGOG9od_VYb--554">
          <mxGeometry relative="1" as="geometry">
            <mxPoint x="273" y="245" as="targetPoint" />
            <Array as="points">
              <mxPoint x="241" y="210" />
              <mxPoint x="190" y="210" />
              <mxPoint x="190" y="248" />
            </Array>
          </mxGeometry>
        </mxCell>
        <mxCell id="mEob46jThGOG9od_VYb--622" value="A2)&lt;br&gt;prepareData()" style="edgeLabel;html=1;align=center;verticalAlign=middle;resizable=0;points=[];labelBackgroundColor=none;fontColor=#000000;" vertex="1" connectable="0" parent="mEob46jThGOG9od_VYb--621">
          <mxGeometry x="-0.4693" relative="1" as="geometry">
            <mxPoint x="-14" y="-20" as="offset" />
          </mxGeometry>
        </mxCell>
        <mxCell id="mEob46jThGOG9od_VYb--626" value="&lt;b&gt;&lt;font face=&quot;CMU Sans Serif&quot; style=&quot;font-size: 20px;&quot; color=&quot;#000000&quot;&gt;A&lt;/font&gt;&lt;/b&gt;" style="whiteSpace=wrap;html=1;aspect=fixed;fillColor=#FFFF33;strokeColor=#000000;strokeWidth=2;shape=rhombus;perimeter=rhombusPerimeter;" vertex="1" parent="1">
          <mxGeometry x="583.9999999999999" y="453" width="26.36" height="26.36" as="geometry" />
        </mxCell>
        <mxCell id="mEob46jThGOG9od_VYb--627" value="&lt;b&gt;&lt;font face=&quot;CMU Sans Serif&quot; style=&quot;font-size: 18px;&quot; color=&quot;#000000&quot;&gt;B&lt;/font&gt;&lt;/b&gt;" style="whiteSpace=wrap;html=1;aspect=fixed;fillColor=#FF00FF;strokeColor=#000000;strokeWidth=2;shape=rhombus;perimeter=rhombusPerimeter;" vertex="1" parent="1">
          <mxGeometry x="626" y="453" width="26.36" height="26.36" as="geometry" />
        </mxCell>
        <mxCell id="mEob46jThGOG9od_VYb--635" value="&lt;b&gt;&lt;font face=&quot;CMU Sans Serif&quot; style=&quot;font-size: 18px;&quot; color=&quot;#000000&quot;&gt;B&lt;/font&gt;&lt;/b&gt;" style="whiteSpace=wrap;html=1;aspect=fixed;fillColor=#FF00FF;strokeColor=#000000;strokeWidth=2;shape=rhombus;perimeter=rhombusPerimeter;" vertex="1" parent="1">
          <mxGeometry x="394" y="412" width="26.36" height="26.36" as="geometry" />
        </mxCell>
        <mxCell id="mEob46jThGOG9od_VYb--636" value="&lt;b&gt;&lt;font face=&quot;CMU Sans Serif&quot; style=&quot;font-size: 20px;&quot; color=&quot;#000000&quot;&gt;A&lt;/font&gt;&lt;/b&gt;" style="whiteSpace=wrap;html=1;aspect=fixed;fillColor=#FFFF33;strokeColor=#000000;strokeWidth=2;shape=rhombus;perimeter=rhombusPerimeter;" vertex="1" parent="1">
          <mxGeometry x="436.9999999999999" y="413" width="26.36" height="26.36" as="geometry" />
        </mxCell>
        <mxCell id="mEob46jThGOG9od_VYb--637" value="" style="rounded=0;whiteSpace=wrap;html=1;strokeColor=#000000;fillColor=#FFFFFF;strokeWidth=2;" vertex="1" parent="1">
          <mxGeometry x="465" y="407" width="30" height="5" as="geometry" />
        </mxCell>
        <mxCell id="mEob46jThGOG9od_VYb--638" value="&lt;b&gt;&lt;font face=&quot;CMU Sans Serif&quot; style=&quot;font-size: 18px;&quot; color=&quot;#000000&quot;&gt;B&lt;/font&gt;&lt;/b&gt;" style="whiteSpace=wrap;html=1;aspect=fixed;fillColor=#FF00FF;strokeColor=#000000;strokeWidth=2;shape=mxgraph.basic.pentagon;" vertex="1" parent="1">
          <mxGeometry x="437" y="379" width="26.36" height="26.36" as="geometry" />
        </mxCell>
        <mxCell id="mEob46jThGOG9od_VYb--639" value="&lt;b&gt;&lt;font face=&quot;CMU Sans Serif&quot; style=&quot;font-size: 20px;&quot; color=&quot;#000000&quot;&gt;A&lt;/font&gt;&lt;/b&gt;" style="whiteSpace=wrap;html=1;aspect=fixed;fillColor=#FFFF33;strokeColor=#000000;strokeWidth=2;shape=mxgraph.basic.pentagon;" vertex="1" parent="1">
          <mxGeometry x="393.9999999999999" y="379" width="26.36" height="26.36" as="geometry" />
        </mxCell>
        <mxCell id="mEob46jThGOG9od_VYb--640" value="" style="rounded=0;whiteSpace=wrap;html=1;strokeColor=#000000;fillColor=#FFFFFF;strokeWidth=2;rotation=90;" vertex="1" parent="1">
          <mxGeometry x="362" y="391" width="30" height="5" as="geometry" />
        </mxCell>
        <mxCell id="mEob46jThGOG9od_VYb--645" value="" style="group" vertex="1" connectable="0" parent="1">
          <mxGeometry x="219.35999999999996" y="722.32" width="45" height="52.360000000000014" as="geometry" />
        </mxCell>
        <mxCell id="mEob46jThGOG9od_VYb--646" value="" style="verticalLabelPosition=bottom;verticalAlign=top;html=1;shape=mxgraph.basic.6_point_star;fillColor=#FF0000;strokeColor=#000000;strokeWidth=2;" vertex="1" parent="mEob46jThGOG9od_VYb--645">
          <mxGeometry y="9.589999999999968" width="40" height="33.18" as="geometry" />
        </mxCell>
        <mxCell id="mEob46jThGOG9od_VYb--661" style="edgeStyle=orthogonalEdgeStyle;rounded=0;orthogonalLoop=1;jettySize=auto;html=1;entryX=0.844;entryY=1.015;entryDx=0;entryDy=0;entryPerimeter=0;exitX=0.25;exitY=1;exitDx=0;exitDy=0;strokeWidth=2;strokeColor=#000000;" edge="1" parent="1" source="mEob46jThGOG9od_VYb--554" target="mEob46jThGOG9od_VYb--554">
          <mxGeometry relative="1" as="geometry">
            <Array as="points">
              <mxPoint x="241" y="330" />
              <mxPoint x="306" y="330" />
            </Array>
          </mxGeometry>
        </mxCell>
        <mxCell id="mEob46jThGOG9od_VYb--662" value="A9) usersPreprocessing()" style="edgeLabel;html=1;align=center;verticalAlign=middle;resizable=0;points=[];labelBackgroundColor=none;fontColor=#000000;" vertex="1" connectable="0" parent="mEob46jThGOG9od_VYb--661">
          <mxGeometry x="0.7138" relative="1" as="geometry">
            <mxPoint x="86" y="11" as="offset" />
          </mxGeometry>
        </mxCell>
        <mxCell id="mEob46jThGOG9od_VYb--664" value="" style="group" vertex="1" connectable="0" parent="1">
          <mxGeometry x="290.99999999999994" y="326" width="56.81999999999999" height="40" as="geometry" />
        </mxCell>
        <mxCell id="mEob46jThGOG9od_VYb--665" value="" style="verticalLabelPosition=bottom;verticalAlign=top;html=1;shape=mxgraph.basic.6_point_star;fillColor=#FF0000;strokeColor=#000000;strokeWidth=2;" vertex="1" parent="mEob46jThGOG9od_VYb--664">
          <mxGeometry x="-5.18" y="-13.000000000000032" width="40" height="33.18" as="geometry" />
        </mxCell>
        <mxCell id="mEob46jThGOG9od_VYb--666" value="&lt;b&gt;&lt;font style=&quot;font-size: 18px;&quot; color=&quot;#000000&quot; face=&quot;CMU Sans Serif&quot;&gt;D&lt;/font&gt;&lt;/b&gt;" style="text;html=1;align=center;verticalAlign=middle;resizable=0;points=[];autosize=1;fillColor=none;container=1;" vertex="1" parent="mEob46jThGOG9od_VYb--664">
          <mxGeometry x="-5.18" y="-16.41" width="40" height="40" as="geometry" />
        </mxCell>
        <mxCell id="mEob46jThGOG9od_VYb--667" value="" style="group" vertex="1" connectable="0" parent="1">
          <mxGeometry x="340.99999999999994" y="279" width="56.81999999999999" height="40" as="geometry" />
        </mxCell>
        <mxCell id="mEob46jThGOG9od_VYb--668" value="" style="verticalLabelPosition=bottom;verticalAlign=top;html=1;shape=mxgraph.basic.6_point_star;fillColor=#FF0000;strokeColor=#000000;strokeWidth=2;" vertex="1" parent="mEob46jThGOG9od_VYb--667">
          <mxGeometry x="-5.18" y="-13.000000000000032" width="40" height="33.18" as="geometry" />
        </mxCell>
        <mxCell id="mEob46jThGOG9od_VYb--669" value="&lt;b&gt;&lt;font style=&quot;font-size: 18px;&quot; color=&quot;#000000&quot; face=&quot;CMU Sans Serif&quot;&gt;D&lt;/font&gt;&lt;/b&gt;" style="text;html=1;align=center;verticalAlign=middle;resizable=0;points=[];autosize=1;fillColor=none;container=1;" vertex="1" parent="mEob46jThGOG9od_VYb--667">
          <mxGeometry x="-5.18" y="-16.41" width="40" height="40" as="geometry" />
        </mxCell>
        <mxCell id="mEob46jThGOG9od_VYb--671" value="&lt;b&gt;&lt;font face=&quot;CMU Sans Serif&quot; style=&quot;font-size: 20px;&quot; color=&quot;#000000&quot;&gt;D&lt;/font&gt;&lt;/b&gt;" style="whiteSpace=wrap;html=1;aspect=fixed;fillColor=#FF0000;strokeColor=#000000;strokeWidth=2;shape=mxgraph.basic.pentagon;" vertex="1" parent="1">
          <mxGeometry x="324.9999999999999" y="399" width="26.36" height="26.36" as="geometry" />
        </mxCell>
        <mxCell id="mEob46jThGOG9od_VYb--649" value="&lt;b&gt;&lt;font style=&quot;font-size: 18px;&quot; color=&quot;#000000&quot; face=&quot;CMU Sans Serif&quot;&gt;D&lt;/font&gt;&lt;/b&gt;" style="text;html=1;align=center;verticalAlign=middle;resizable=0;points=[];autosize=1;strokeColor=none;fillColor=none;" vertex="1" parent="1">
          <mxGeometry x="219.35999999999996" y="729.32" width="40" height="40" as="geometry" />
        </mxCell>
        <mxCell id="mEob46jThGOG9od_VYb--672" value="&lt;b&gt;&lt;font face=&quot;CMU Sans Serif&quot; style=&quot;font-size: 20px;&quot; color=&quot;#000000&quot;&gt;D&lt;/font&gt;&lt;/b&gt;" style="whiteSpace=wrap;html=1;aspect=fixed;fillColor=#FF0000;strokeColor=#000000;strokeWidth=2;shape=mxgraph.basic.pentagon;" vertex="1" parent="1">
          <mxGeometry x="251.9999999999999" y="395" width="26.36" height="26.36" as="geometry" />
        </mxCell>
        <mxCell id="mEob46jThGOG9od_VYb--674" value="&lt;b&gt;&lt;font face=&quot;CMU Sans Serif&quot; style=&quot;font-size: 20px;&quot; color=&quot;#000000&quot;&gt;D&lt;/font&gt;&lt;/b&gt;" style="whiteSpace=wrap;html=1;aspect=fixed;fillColor=#FF0000;strokeColor=#000000;strokeWidth=2;shape=mxgraph.basic.pentagon;" vertex="1" parent="1">
          <mxGeometry x="237.9999999999999" y="317" width="26.36" height="26.36" as="geometry" />
        </mxCell>
        <mxCell id="mEob46jThGOG9od_VYb--675" value="" style="rounded=0;whiteSpace=wrap;html=1;strokeColor=#000000;fillColor=#FFFFFF;strokeWidth=2;rotation=90;" vertex="1" parent="1">
          <mxGeometry x="261" y="328" width="30" height="5" as="geometry" />
        </mxCell>
      </root>
    </mxGraphModel>
  </diagram>
</mxfile>
